<svg width="40" height="40" viewBox="0 0 40 40" fill="none" xmlns="http://www.w3.org/2000/svg">
<path d="M17.157 23.3593C17.0803 21.706 15.952 21.666 14.4187 21.666C12.0587 21.666 11.667 22.2293 11.667 24.4443V27.221C11.667 29.436 12.0587 29.9993 14.4187 29.9993C15.952 29.9993 17.082 29.9593 17.157 28.306M35.0003 21.666L32.562 28.186C32.1087 29.3943 31.8837 29.9993 31.5253 29.9993C31.167 29.9993 30.942 29.3943 30.4887 28.186L28.0503 21.666M24.5353 21.666H22.9153C22.267 21.666 21.9437 21.666 21.6887 21.771C20.8187 22.131 20.8303 22.9777 20.8303 23.7493C20.8303 24.521 20.8187 25.366 21.6887 25.7277C21.9437 25.8327 22.267 25.8327 22.9153 25.8327C23.562 25.8327 23.887 25.8327 24.142 25.9377C25.012 26.2977 25.0003 27.1443 25.0003 27.916C25.0003 28.6877 25.012 29.5327 24.142 29.8943C23.887 29.9993 23.562 29.9993 22.9153 29.9993H21.1487" stroke="#038719" stroke-width="2" stroke-linecap="round" stroke-linejoin="round"/>
<path d="M25 36.6663H17.8783C12.445 36.6663 9.725 36.6663 7.83833 35.3363C7.30142 34.9598 6.82149 34.508 6.41333 33.9947C5 32.218 5 29.6613 5 24.5447V20.303C5 15.3647 5 12.8947 5.78167 10.923C7.03833 7.75134 9.695 5.25134 13.065 4.06801C15.1583 3.33301 17.78 3.33301 23.03 3.33301C26.0267 3.33301 27.5267 3.33301 28.7233 3.75301C30.6483 4.42967 32.1667 5.85801 32.885 7.66967C33.3333 8.79634 33.3333 10.208 33.3333 13.0297V16.6663" stroke="#038719" stroke-width="2" stroke-linecap="round" stroke-linejoin="round"/>
<path d="M5 19.9997C5 18.5264 5.58526 17.1135 6.62702 16.0717C7.66879 15.0299 9.08172 14.4447 10.555 14.4447C11.665 14.4447 12.9733 14.638 14.0517 14.3497C14.5228 14.2229 14.9524 13.9744 15.2973 13.6292C15.6422 13.2841 15.8903 12.8543 16.0167 12.383C16.305 11.3047 16.1117 9.99634 16.1117 8.88634C16.1121 7.41335 16.6976 6.00084 17.7393 4.95944C18.781 3.91804 20.1937 3.33301 21.6667 3.33301" stroke="#038719" stroke-width="2" stroke-linecap="round" stroke-linejoin="round"/>
</svg>
