<svg width="22" height="22" viewBox="0 0 22 22" fill="none" xmlns="http://www.w3.org/2000/svg">
<path d="M11.5963 12.899L8.29688 13.371L8.76796 10.0707L17.2529 1.58576C17.628 1.21071 18.1367 1 18.6671 1C19.1975 1 19.7062 1.21071 20.0812 1.58576C20.4563 1.96082 20.667 2.46951 20.667 2.99992C20.667 3.53033 20.4563 4.03902 20.0812 4.41408L11.5963 12.899Z" stroke="#767474" stroke-width="1.98699" stroke-linecap="round" stroke-linejoin="round"/>
<path d="M17.3333 13.0006V19.667C17.3333 20.0206 17.1928 20.3597 16.9428 20.6097C16.6927 20.8598 16.3536 21.0003 16 21.0003H2.66726C2.31365 21.0003 1.97453 20.8598 1.72449 20.6097C1.47445 20.3597 1.33398 20.0206 1.33398 19.667V6.33425C1.33398 5.98064 1.47445 5.64152 1.72449 5.39148C1.97453 5.14145 2.31365 5.00098 2.66726 5.00098H9.33362" stroke="#767474" stroke-width="1.98699" stroke-linecap="round" stroke-linejoin="round"/>
</svg>
