<svg width="24" height="24" viewBox="0 0 24 24" fill="none" xmlns="http://www.w3.org/2000/svg">
<path d="M1.53452 22H22.4648" stroke="#E6F3E8" stroke-width="1.98699" stroke-linecap="round" stroke-linejoin="round"/>
<path d="M5.79344 11.7676H3.00274C2.81771 11.7676 2.64025 11.8411 2.50941 11.9719C2.37857 12.1028 2.30507 12.2802 2.30507 12.4653V22.0001H6.49112V12.4653C6.49112 12.2802 6.41761 12.1028 6.28677 11.9719C6.15593 11.8411 5.97848 11.7676 5.79344 11.7676Z" stroke="#E6F3E8" stroke-width="1.98699" stroke-linecap="round" stroke-linejoin="round"/>
<path d="M13.3951 2H10.6044C10.4194 2 10.2419 2.07351 10.1111 2.20434C9.98023 2.33518 9.90672 2.51264 9.90672 2.69767V22H14.0928V2.69767C14.0928 2.51264 14.0193 2.33518 13.8884 2.20434C13.7576 2.07351 13.5801 2 13.3951 2Z" stroke="#E6F3E8" stroke-width="1.98699" stroke-linecap="round" stroke-linejoin="round"/>
<path d="M20.9967 6.18652H18.206C18.021 6.18652 17.8435 6.26003 17.7127 6.39087C17.5819 6.52171 17.5084 6.69916 17.5084 6.8842V22.0005H21.6944V6.8842C21.6944 6.69916 21.6209 6.52171 21.4901 6.39087C21.3592 6.26003 21.1818 6.18652 20.9967 6.18652Z" stroke="#E6F3E8" stroke-width="1.98699" stroke-linecap="round" stroke-linejoin="round"/>
</svg>
