<svg width="20" height="22" viewBox="0 0 20 22" fill="none" xmlns="http://www.w3.org/2000/svg">
<path d="M4 5.5C2.159 7.148 1 9.334 1 12C1 13.1819 1.23279 14.3522 1.68508 15.4442C2.13738 16.5361 2.80031 17.5282 3.63604 18.364C4.47177 19.1997 5.46392 19.8626 6.55585 20.3149C7.64778 20.7672 8.8181 21 10 21C11.1819 21 12.3522 20.7672 13.4442 20.3149C14.5361 19.8626 15.5282 19.1997 16.364 18.364C17.1997 17.5282 17.8626 16.5361 18.3149 15.4442C18.7672 14.3522 19 13.1819 19 12C19 9.334 17.841 7.148 16 5.5M10 1V10M10 1C9.3 1 7.992 2.994 7.5 3.5M10 1C10.7 1 12.008 2.994 12.5 3.5" stroke="#373636" stroke-width="2" stroke-linecap="round" stroke-linejoin="round"/>
</svg>
